<svg xmlns="http://www.w3.org/2000/svg" width="10.401" height="6.402" viewBox="0 0 10.401 6.402"><path d="M10.533.9l0,.1,0-.1a.536.536,0,0,0-.389.187L6,5.646,1.854,1.087A.555.555,0,0,0,1.673.951.519.519,0,0,0,1.454.9h0a.525.525,0,0,0-.313.1.593.593,0,0,0-.2.272.646.646,0,0,0-.028.344.615.615,0,0,0,.152.3L5.6,6.921h0a.525.525,0,0,0,.79,0h0l4.54-4.994a.615.615,0,0,0,.155-.308.645.645,0,0,0-.03-.348A.592.592,0,0,0,10.851,1h0A.524.524,0,0,0,10.533.9Z" transform="translate(-0.799 -0.798)" fill="#f1f5f9" stroke="#f1f5f9" stroke-width="0.2"/></svg>