<svg width="18" height="21" viewBox="0 0 18 21" fill="none" xmlns="http://www.w3.org/2000/svg">
    <path d="M17.0996 19.6656L17.0139 19.6686L17.0996 19.6656C17.0898 19.3893 16.9178 19.14 16.6461 18.9652C16.6458 18.965 16.6456 18.9648 16.6453 18.9647L4.39484 10.7814L16.6457 2.59785C16.6459 2.59774 16.6461 2.59762 16.6463 2.5975C16.7836 2.50816 16.8959 2.39935 16.974 2.27586C17.0524 2.15184 17.0944 2.01582 17.0944 1.87632L17.0944 1.87627C17.0943 1.66794 17.001 1.47057 16.8377 1.3086C16.675 1.14719 16.4484 1.02584 16.1899 0.9557C15.931 0.885461 15.6477 0.868582 15.3754 0.9067C15.1036 0.944753 14.8514 1.03644 14.6519 1.17319C14.6517 1.17331 14.6516 1.17343 14.6514 1.17355L1.33438 10.0692L1.33436 10.0693C1.06546 10.249 0.900001 10.503 0.900001 10.7814C0.900001 11.0598 1.06546 11.3138 1.33436 11.4935L1.33438 11.4936L14.6509 20.3889C14.6512 20.3891 14.6515 20.3893 14.6517 20.3895C14.8525 20.5288 15.1077 20.622 15.383 20.6602C15.6588 20.6986 15.9457 20.6805 16.2071 20.6078C16.468 20.5352 16.6955 20.4102 16.8566 20.2446C17.0183 20.0784 17.107 19.8767 17.0996 19.6656Z" fill="#F8FAFC" stroke="#F8FAFC" stroke-width="0.2"/>
</svg>
