<svg width="40" height="40" viewBox="0 0 40 40" fill="none" xmlns="http://www.w3.org/2000/svg">
    <path d="M9.24753 15.862C9.22203 16.1055 9.26313 16.356 9.37513 16.586C9.5978 17.0433 10.0637 17.3334 10.573 17.3334L15.9975 17.3334L15.9975 34.6667C15.9975 36.14 17.1909 37.3334 18.6642 37.3334L21.3309 37.3334C22.8042 37.3334 23.9975 36.14 23.9975 34.6667L23.9975 17.3334L29.4272 17.3334C29.9379 17.3334 30.4025 17.0433 30.6251 16.586C30.7171 16.3993 30.7605 16.1987 30.7605 16C30.7605 15.708 30.6672 15.4184 30.4819 15.1797L21.0522 3.08598C20.7989 2.76198 20.4147 2.57296 20.0027 2.57296C19.5907 2.57296 19.2027 2.76198 18.9507 3.08598L9.52096 15.1797C9.3643 15.3811 9.27303 15.6185 9.24753 15.862Z" fill="#475569"/>
</svg>
